<?xml version="1.0" encoding="utf-8"?>
<!-- Generator: Adobe Illustrator 16.0.0, SVG Export Plug-In . SVG Version: 6.00 Build 0)  -->
<!DOCTYPE svg PUBLIC "-//W3C//DTD SVG 1.1//EN" "http://www.w3.org/Graphics/SVG/1.1/DTD/svg11.dtd">
<svg version="1.1" id="Layer_1" xmlns="http://www.w3.org/2000/svg" xmlns:xlink="http://www.w3.org/1999/xlink" x="0px" y="0px"
	 width="45px" height="45px" viewBox="0 0 45 45" enable-background="new 0 0 45 45" xml:space="preserve">
<rect x="6.307" y="6.028" transform="matrix(0.9287 0.3707 -0.3707 0.9287 9.8862 -6.7887)" fill="#FFF1E8" width="32.593" height="32.591"/>
<g>
	<polygon fill="#A38975" points="29.984,39.513 39.792,14.941 15.221,5.133 15.074,5.5 39.28,15.161 29.619,39.366 	"/>
</g>
<linearGradient id="SVGID_1_" gradientUnits="userSpaceOnUse" x1="28.8442" y1="7.3057" x2="16.2714" y2="37.5617">
	<stop  offset="0" style="stop-color:#FF1261"/>
	<stop  offset="1" style="stop-color:#D9004A"/>
</linearGradient>
<path fill="url(#SVGID_1_)" d="M13.51,1.148L1.426,31.417l30.271,12.083L43.779,13.23L13.51,1.148z M29.984,39.513L5.413,29.706
	l9.808-24.572l24.572,9.808L29.984,39.513z"/>
<g>
	<path fill="#FF0056" d="M8.139,27.508l0.34-0.829l2.463,1.004l6.848-16.806l-2.463-1.003l0.337-0.831l8.71,3.55l-0.338,0.829
		l-2.462-1.003l-3.122,7.664l8.339,3.399l3.124-7.664l-2.462-1.003l0.337-0.83l8.681,3.536l-0.339,0.831l-2.431-0.991l-6.848,16.807
		l1.632,0.665c0.354,0.19,0.505,0.576,0.461,1.154l-8.68-3.535l0.338-0.829l2.464,1.002l3.347-8.219l-8.339-3.398l-3.35,8.218
		l1.631,0.665c0.415,0.215,0.578,0.606,0.493,1.171L8.139,27.508z"/>
	<g>
		
			<rect x="20.391" y="31.901" transform="matrix(0.9261 0.3773 -0.3773 0.9261 13.7578 -5.6189)" fill="#960023" width="1.664" height="0.823"/>
		<path fill="#960023" d="M33.395,18.119l-0.921-0.375l-6.848,16.807l1.632,0.663c0.079,0.044,0.148,0.099,0.206,0.163l1.487,0.605
			c0.045-0.579-0.108-0.964-0.463-1.155l-1.63-0.666L33.395,18.119z"/>
		
			<rect x="8.265" y="26.958" transform="matrix(0.9258 0.3779 -0.3779 0.9258 11.0175 -1.4087)" fill="#960023" width="1.665" height="0.822"/>
		<path fill="#960023" d="M16.36,29.884l-1.631-0.664l3.039-7.456l-0.922-0.375l-3.347,8.22l1.631,0.665
			c0.097,0.05,0.179,0.112,0.246,0.183l1.476,0.601C16.938,30.492,16.776,30.101,16.36,29.884z"/>
		<polygon fill="#960023" points="23.146,12.976 23.119,13.044 24.039,13.419 24.378,12.59 15.667,9.04 15.358,9.801 		"/>
		<polygon fill="#960023" points="25.873,23.104 18.455,20.08 21.268,13.178 20.348,12.802 17.223,20.466 25.564,23.866 		"/>
		<polygon fill="#960023" points="35.243,17.904 35.215,17.974 36.135,18.348 36.475,17.518 27.794,13.981 27.484,14.743 		"/>
	</g>
</g>
</svg>
